{"title":"Central Intelligence 2016 1080p HC WEBRip x264 AAC2 0-SS","uid":15323351,"size":4011582901,"categoryP":"video","categoryS":"hd___movies","magnet":"?xt=urn:btih:880e71f18a294c1b52329f8d0158949a398cf52a&amp;dn=Central+Intelligence+2016+1080p+HC+WEBRip+x264+AAC2+0-SS&amp;tr=udp%3A%2F%2Ftracker.leechers-paradise.org%3A6969&amp;tr=udp%3A%2F%2Fzer0day.ch%3A1337&amp;tr=udp%3A%2F%2Fopen.demonii.com%3A1337&amp;tr=udp%3A%2F%2Ftracker.coppersurfer.tk%3A6969&amp;tr=udp%3A%2F%2Fexodus.desync.com%3A6969","seeders":12,"leechers":3,"uploader":"makintos13","files":1,"time":1468670599,"description":"Central Intelligence 2016 1080p HC WEBRip x264 AAC2 0-SS\r\n\r\nscreens:\r\n \nhttps://imgmak.com/Tdz\r\n \nhttps://imgmak.com/Td7\r\n \nhttps://imgmak.com/Tdk\r\n \nhttps://imgmak.com/Tdm\r\n \nhttps://imgmak.com/Tdu\r\n \nhttp://www.imdb.com/title/tt1489889/\r\n\r\n\r\nVideo\r\nID : 1\r\nFormat : AVC\r\nFormat/Info : Advanced Video Codec\r\nFormat profile :   \r\nFormat settings, CABAC : Yes\r\nFormat settings, ReFrames : 4 frames\r\nCodec ID : avc1\r\nCodec ID/Info : Advanced Video Coding\r\nDuration : 1h 51mn\r\nBit rate : 4 500 Kbps\r\nWidth : 1 920 pixels\r\nHeight : 796 pixels\r\nDisplay aspect ratio : 2.40:1\r\nFrame rate mode : Constant\r\nFrame rate : 23.976 (23976/1000) fps\r\nColor space : YUV\r\nChroma subsampling : 4:2:0\r\nBit depth : 8 bits\r\nScan type : Progressive\r\nBits/(Pixel*Frame) : 0.123\r\nStream size : 3.56 GiB (95%)\r\n\r\nAudio\r\nID : 2\r\nFormat : AAC\r\nFormat/Info : Advanced Audio Codec\r\nFormat profile : LC\r\nCodec ID : 40\r\nDuration : 1h 51mn\r\nBit rate mode : Constant\r\nBit rate : 224 Kbps\r\nChannel(s) : 2 channels\r\nChannel positions : Front: L R\r\nSampling rate : 48.0 KHz\r\nFrame rate : 46.875 fps (1024 spf)\r\nCompression mode : Lossy\r\nStream size : 179 MiB (5%)","torrent":{"xt":"urn:btih:880e71f18a294c1b52329f8d0158949a398cf52a","amp;dn":"Central+Intelligence+2016+1080p+HC+WEBRip+x264+AAC2+0-SS","amp;tr":["udp%3A%2F%2Ftracker.leechers-paradise.org%3A6969","udp%3A%2F%2Fzer0day.ch%3A1337","udp%3A%2F%2Fopen.demonii.com%3A1337","udp%3A%2F%2Ftracker.coppersurfer.tk%3A6969","udp%3A%2F%2Fexodus.desync.com%3A6969"],"infoHash":"880e71f18a294c1b52329f8d0158949a398cf52a","infoHashBuffer":{"type":"Buffer","data":[136,14,113,241,138,41,76,27,82,50,159,141,1,88,148,154,57,140,245,42]},"announce":[],"urlList":[]}}